<svg id="visual" viewBox="0 0 960 540" width="960" height="540" xmlns="http://www.w3.org/2000/svg" xmlns:xlink="http://www.w3.org/1999/xlink" version="1.1"><rect x="0" y="0" width="960" height="540" fill="#002233"></rect><path d="M0 428L22.8 416.8C45.7 405.7 91.3 383.3 137 383.5C182.7 383.7 228.3 406.3 274 407.7C319.7 409 365.3 389 411.2 387C457 385 503 401 548.8 401.2C594.7 401.3 640.3 385.7 686 382.5C731.7 379.3 777.3 388.7 823 388.5C868.7 388.3 914.3 378.7 937.2 373.8L960 369L960 541L937.2 541C914.3 541 868.7 541 823 541C777.3 541 731.7 541 686 541C640.3 541 594.7 541 548.8 541C503 541 457 541 411.2 541C365.3 541 319.7 541 274 541C228.3 541 182.7 541 137 541C91.3 541 45.7 541 22.8 541L0 541Z" fill="#0066FF" stroke-linecap="round" stroke-linejoin="miter"></path></svg>